<svg width="56" height="66" viewBox="0 0 56 66" fill="none" xmlns="http://www.w3.org/2000/svg">
<path d="M27.9999 0C27.8209 0.00725459 27.6453 0.051245 27.484 0.129248L1.02157 11.7533C0.294282 12.2181 -0.0158457 12.7516 0.000621256 13.6563L2.28404 41.9204C2.30874 42.2147 2.41303 42.3742 2.63533 42.6079L12.4167 50.0686C12.4167 50.0686 12.4579 55.6097 13.6654 57.785C14.5766 59.4267 18.8114 66.0898 27.9999 65.9991C37.1885 65.9083 41.6894 60.4167 43.0507 57.6722C44.3406 55.0707 44.3132 49.6643 44.3132 49.6643L53.2465 42.6574C53.3641 42.5802 53.4607 42.4749 53.5277 42.3511C53.5948 42.2273 53.6302 42.0888 53.6307 41.9479L55.991 13.5958C56.0624 12.7378 55.7083 12.0283 54.981 11.7121L28.4967 0.129248C28.3424 0.0505906 28.1729 0.00648899 27.9999 0ZM27.86 2.96446C28.0082 2.96996 28.1564 3.01946 28.3759 3.11846L48.7318 12.5481L28.3622 24.4747C28.0466 24.6342 27.9066 24.6094 27.6377 24.4747L7.46564 12.7488C7.15551 12.5453 7.1363 12.4051 7.46564 12.2071L27.3193 3.09371C27.4896 3.01646 27.6732 2.97259 27.86 2.96446ZM27.8874 4.85643L11.2722 12.6251L27.8545 22.2224L44.5053 12.6526L27.8874 4.85643ZM27.8874 5.88767L42.2466 12.6526L33.294 17.6575L30.4398 16.1258L35.2811 10.0539L29.4133 12.3583L32.4981 8.52488L23.5731 12.2263L26.592 9.06387L23.9079 7.82639L27.8874 5.88767ZM22.8458 8.22239L24.9975 9.28937L19.1929 15.0588L29.1142 10.9558L25.6946 15.0863L31.834 12.5233L28.7162 16.4255L32.0975 18.257L27.816 20.6907L13.6874 12.5893L22.8458 8.22239ZM3.82644 18.9527C3.90603 18.9527 4.02405 19.0077 4.19695 19.1012L24.1768 31.6878L24.2235 53.187L5.4155 39.2805C5.20418 39.0797 5.13008 39.011 5.13282 38.7497L3.70568 19.1232C3.70568 19.005 3.74685 18.9527 3.82644 18.9527ZM52.1075 19.1892C52.1899 19.1892 52.2228 19.2442 52.2256 19.3597L50.867 38.6837C50.867 38.9477 50.7957 39.0137 50.5843 39.2145L31.8038 53.187L31.9218 31.7236L51.7343 19.3377C51.8468 19.2623 51.974 19.2117 52.1075 19.1892ZM49.8982 28.0056L49.4124 28.3521L49.0474 29.5676L48.913 28.7014L48.2927 29.1138L48.6906 30.7583L48.0759 33.2745L48.7153 32.7383L48.9486 31.2891L49.1243 32.4248L49.8872 31.9188L49.3521 30.0433L49.8982 28.0056ZM6.78226 28.6904C6.45292 28.6601 6.26081 29.0396 6.31844 29.7078C6.39529 30.6071 6.89478 31.6878 7.43819 32.1196L8.58814 33.027C9.13703 33.4615 9.51577 33.0765 9.43069 32.1663C9.34836 31.2588 8.83788 30.1753 8.29448 29.7491L7.15002 28.8608C7.04603 28.7703 6.91849 28.7111 6.78226 28.6904ZM6.9881 29.3366C7.07672 29.3508 7.15951 29.3899 7.22687 29.4493L8.31643 30.3018C8.67047 30.5796 9.00255 31.2863 9.05744 31.8693C9.11233 32.4605 8.86533 32.7053 8.51129 32.4248L7.41349 31.5586C7.0622 31.2808 6.73835 30.5851 6.68895 30.0021C6.65052 29.5676 6.77128 29.3173 6.9881 29.3366ZM47.6697 29.6198C47.6697 29.5236 47.4666 29.6473 47.3541 29.7298C46.915 30.0681 46.3716 31.2671 46.3331 32.6668C46.292 34.1958 46.635 34.369 47.0549 34.0803C47.4995 33.7778 48.1033 32.7273 48.1253 31.2588C48.1445 30.1341 47.6697 29.9086 47.6697 29.6198ZM45.7129 29.8041C45.7129 29.8041 44.508 30.3266 44.5053 30.6153C44.4779 32.4028 44.3132 36.0272 44.3132 36.0272L45.2243 35.337C45.2243 35.337 46.1273 34.7375 46.141 33.082C46.1493 32.0206 45.7952 32.2296 45.7952 32.2296C45.7952 32.2296 46.0806 31.6301 46.0861 30.8161C46.0998 29.5923 45.7129 29.8041 45.7129 29.8041ZM47.3651 30.3926C47.6807 30.3926 47.623 31.1296 47.6176 31.6191C47.6121 32.1003 47.376 33.203 47.1235 33.3873C46.8683 33.5743 46.8491 32.719 46.8546 32.2241C46.8628 31.7483 47.0577 30.3926 47.3651 30.3926ZM45.389 30.5988C45.389 30.5988 45.6086 30.4613 45.5894 31.1873C45.5719 31.5015 45.4896 31.8086 45.3479 32.0893L44.9801 32.3368L44.9966 30.8573L45.389 30.5988ZM43.9838 30.6566L43.3554 31.0416L43.1907 36.1097C43.1907 36.1097 43.1523 36.6157 43.2895 36.7202C43.4871 36.8742 44.0223 36.2445 44.0223 36.2445L44.0113 35.667C44.0113 35.667 43.8054 35.7165 43.8137 35.5075L43.9838 30.6566ZM9.47461 30.6896L9.78199 33.9785L10.1662 34.2838L9.91647 31.5668L11.1817 32.565C11.3947 32.7764 11.5277 33.0554 11.5577 33.3543C11.5851 33.6513 11.4671 33.7778 11.2887 33.6375L10.2019 32.7768L11.511 35.3508L12.0736 35.799L11.1954 34.1023L11.3683 34.2398C11.7443 34.534 11.9995 34.2755 11.9392 33.654C11.8788 33.0353 11.5275 32.2901 11.1515 31.9986L9.47461 30.6896ZM45.2875 32.8345C45.2875 32.8345 45.5619 32.7685 45.5345 33.6018C45.5125 34.3085 45.2875 34.5313 45.2875 34.5313L44.8703 34.8338L44.906 33.1288L45.2875 32.8345ZM42.6802 33.313C42.5649 33.28 42.4003 33.3295 42.1615 33.5248C41.8678 33.7173 41.3244 34.5698 41.3244 34.5698L41.3464 35.0923C41.3464 35.0923 41.6593 34.7045 41.8157 34.578C42.4222 33.973 42.2685 34.8255 42.2685 34.8255L42.2548 35.0978L41.8267 35.4993C41.8267 35.4993 41.1927 36.1235 41.1598 37.3087C41.1433 37.8752 41.3464 38.2712 41.6538 38.0375C41.9557 37.812 42.3317 37.13 42.3317 37.13L42.3426 37.526L42.8641 37.0585L42.8998 34.2535C42.8998 34.2535 43.0178 33.4093 42.6802 33.313ZM13.3032 33.6595C13.2071 33.5825 13.122 33.5853 13.0836 33.6705L12.167 35.8705L12.6253 36.2362L13.3745 34.391L14.0716 36.2885L13.0287 35.4635L13.3169 36.2335L14.3763 37.0777L14.6589 37.8477L15.1255 38.2162L13.5557 34.0418C13.5047 33.8952 13.4179 33.7638 13.3032 33.6595ZM40.8963 34.622L40.4023 34.985L40.3748 37.9495C40.3748 37.9495 40.1059 38.472 39.9906 38.5462C39.793 38.6755 39.7985 38.252 39.7985 38.252L39.8397 35.447L39.3127 35.8458L39.2716 38.6507C39.2716 38.6507 39.2414 39.9074 39.771 39.5115C40.0464 39.2722 40.2561 38.9665 40.3803 38.6232L40.427 38.9752L40.8496 38.6727L40.8963 34.622ZM38.6842 34.9245L38.2341 35.2215L38.053 36.5662L37.8417 36.701V36.7642L37.4245 37.0255C37.2598 37.2812 37.1556 38.0705 37.1556 38.0705L37.161 37.2785L36.6808 37.6195L36.571 41.6977L37.1144 41.3044L37.2324 38.8927C37.2324 38.8927 37.3202 38.3125 37.5014 38.01L37.795 37.7735L37.8417 36.9237L37.8472 37.35L38.0283 37.196L38.0063 39.7947C38.0063 39.7947 37.9652 40.6582 38.418 40.3557C38.5745 40.2484 39.0026 39.7232 39.0026 39.7232L38.9779 39.1925C38.9779 39.1925 38.7693 39.3877 38.7034 39.429C38.6019 39.4922 38.6046 39.2695 38.6046 39.2695L38.6623 36.7532L38.9642 36.5415L38.9559 35.8815L38.6925 36.0465L38.6842 34.9245ZM15.2161 35.3095C14.8758 35.2765 14.6754 35.667 14.7468 36.3655C14.8428 37.2977 15.3835 38.4225 15.9544 38.8762L17.1866 39.8469L17.3568 39.4345L15.9187 38.2932C15.5509 37.999 15.1969 37.2757 15.1337 36.6707C15.0706 36.0685 15.3259 35.8183 15.6909 36.1042L16.8518 37.02L17.022 36.6075L15.6031 35.4855C15.4931 35.3916 15.359 35.3306 15.2161 35.3095ZM42.2493 35.7825V36.7642C42.2493 36.7642 41.9557 37.1107 41.8212 37.1905C41.6894 37.2702 41.6565 37.0392 41.6565 36.8357C41.6655 36.5371 41.7803 36.2515 41.9804 36.03L42.2493 35.7825ZM36.1401 36.2527C35.9562 36.3847 35.8025 36.7697 35.7998 37.1135C35.7998 37.4572 35.9452 37.6277 36.1291 37.4985C36.3157 37.3665 36.4722 36.9815 36.4749 36.635C36.4749 36.2912 36.3267 36.118 36.1401 36.2527ZM17.2388 36.7725L17.5681 39.8524C17.5892 40.0382 17.6735 40.2111 17.8069 40.3419L19.6539 41.8049L19.8241 41.3869L17.9414 39.8937L17.6395 37.0832L17.2388 36.7725ZM35.583 37.0722L34.9984 37.5012C34.9984 37.5012 34.938 38.5215 34.4989 42.1487C34.1366 39.4537 34.1366 38.1612 34.1366 38.1612L33.4615 38.6095L33.8786 43.5676L34.8804 42.9957L35.583 37.0722ZM36.2938 37.8917L35.7531 38.2795L35.583 42.4182L36.1236 42.0277L36.2938 37.8917ZM20.0711 39.1182C19.7225 39.0825 19.5277 39.4839 19.6073 40.1962C19.7143 41.1477 20.2769 42.2999 20.8615 42.7647L22.124 43.7656L22.2996 43.3421L20.8148 42.1707C20.502 41.9232 20.1973 41.3732 20.0656 40.8369L21.8111 42.2119L21.9813 41.7912L19.9942 40.2237C20.0217 39.8222 20.2522 39.6847 20.5624 39.9294L21.7589 40.8727L21.9291 40.4547L20.4635 39.3052C20.3524 39.2078 20.2166 39.1431 20.0711 39.1182ZM22.1816 40.7324C22.1459 40.7682 22.1267 40.8479 22.1404 40.9552C22.1675 41.1751 22.2692 41.379 22.4286 41.5327C22.5603 41.6372 22.6482 41.5492 22.6207 41.3319C22.593 41.1106 22.4914 40.9052 22.3326 40.7489C22.2667 40.6994 22.2173 40.6939 22.1816 40.7324ZM22.2228 40.8204C22.2502 40.7929 22.2941 40.7929 22.3463 40.8314C22.4506 40.9139 22.5494 41.1174 22.5658 41.2852C22.5878 41.4584 22.5219 41.5272 22.4149 41.4447C22.382 41.4172 22.3737 41.3484 22.3463 41.3044L22.3627 41.3154L22.3463 41.1504L22.3874 41.1779L22.4561 41.3924L22.5164 41.4392L22.4341 41.2082H22.4451C22.467 41.2027 22.4698 41.1724 22.467 41.1559V41.1202C22.4585 41.0619 22.4349 41.0069 22.3984 40.9607C22.3782 40.9343 22.3542 40.9111 22.3271 40.8919L22.2639 40.8369L22.3051 41.2137C22.2639 41.1312 22.2036 41.0762 22.1953 40.9937C22.1816 40.9057 22.1953 40.8479 22.2228 40.8204ZM22.3216 40.9497L22.338 40.9607C22.3655 40.9827 22.3737 40.9909 22.3874 41.0074C22.4013 41.0292 22.4106 41.0535 22.4149 41.0789C22.4149 41.0954 22.4204 41.1064 22.4149 41.1147C22.4094 41.1312 22.3902 41.1202 22.3737 41.1092L22.338 41.0817L22.3216 40.9497Z" fill="white"/>
</svg>
