<svg width="64" height="43" viewBox="0 0 64 43" fill="none" xmlns="http://www.w3.org/2000/svg">
<path d="M23.2727 1.90504e-05H40.7273L32 8.60002L23.2727 1.90504e-05ZM27.6364 27.692C26.7636 28.6667 26.1818 30.1 26.1818 31.5333C26.1818 33.0539 26.7948 34.5122 27.8859 35.5874C28.977 36.6626 30.4569 37.2667 32 37.2667C33.5431 37.2667 35.023 36.6626 36.1141 35.5874C37.2052 34.5122 37.8182 33.0539 37.8182 31.5333C37.8182 29.9567 37.1782 28.5233 36.1018 27.4913L40.2327 23.4207C42.3273 25.5133 43.6364 28.38 43.6364 31.5333C43.6364 34.5745 42.4104 37.4911 40.2282 39.6415C38.0459 41.7919 35.0862 43 32 43C28.9138 43 25.9541 41.7919 23.7718 39.6415C21.5896 37.4911 20.3636 34.5745 20.3636 31.5333C20.3636 28.466 21.5855 25.6853 23.5636 23.65L23.5345 23.6213L44.1309 3.35402C45.2114 2.28825 46.4949 1.44331 47.9077 0.86773C49.3206 0.292151 50.8348 -0.00273037 52.3636 1.90504e-05C55.4498 1.90504e-05 58.4095 1.20811 60.5918 3.35853C62.774 5.50894 64 8.42553 64 11.4667C64 14.5078 62.774 17.4244 60.5918 19.5748C58.4095 21.7253 55.4498 22.9333 52.3636 22.9333C49.1636 22.9333 46.2545 21.6433 44.1309 19.5793L48.2618 15.5087C49.3091 16.5693 50.7636 17.2 52.3636 17.2C53.9067 17.2 55.3866 16.596 56.4777 15.5208C57.5688 14.4455 58.1818 12.9873 58.1818 11.4667C58.1818 9.94611 57.5688 8.48781 56.4777 7.4126C55.3866 6.3374 53.9067 5.73335 52.3636 5.73335C50.7636 5.73335 49.3091 6.36402 48.2618 7.42468L27.6364 27.692M15.7382 7.42468C14.6909 6.36402 13.2364 5.73335 11.6364 5.73335C10.0933 5.73335 8.61341 6.3374 7.52229 7.4126C6.43117 8.48781 5.81818 9.94611 5.81818 11.4667C5.81818 12.9873 6.43117 14.4455 7.52229 15.5208C8.61341 16.596 10.0933 17.2 11.6364 17.2C13.2364 17.2 14.6909 16.5693 15.7382 15.5087L19.8691 19.5793C17.7455 21.6433 14.8364 22.9333 11.6364 22.9333C8.55021 22.9333 5.59045 21.7253 3.40821 19.5748C1.22597 17.4244 0 14.5078 0 11.4667C0 8.42553 1.22597 5.50894 3.40821 3.35853C5.59045 1.20811 8.55021 1.90504e-05 11.6364 1.90504e-05C14.8655 1.90504e-05 17.7745 1.29002 19.8691 3.35402L27.8982 11.266L23.7673 15.3367L15.7382 7.42468Z" fill="white"/>
</svg>
