<svg width="72" height="72" viewBox="0 0 72 72" fill="none" xmlns="http://www.w3.org/2000/svg">
<path d="M45.0999 52.5C44.9999 56.6 43.9999 63.3 43.9999 63.3L26.7999 63.4L26.8999 57.6C26.8999 57.6 26.6999 46.4 21.5999 42.1C11.2999 33.5 13.9999 15.4 25.2999 10.9C36.4999 6.4 47.5999 9.7 50.9999 14.7C54.3999 19.7 51.5999 23.9 51.5999 23.9C51.5999 23.9 50.7999 25.4 52.6999 28.5C54.5999 31.6 57.5999 39 57.5999 39L53.4999 40.4C53.4999 40.4 55.4999 49.9 52.6999 51.3C49.8999 52.7 43.9999 52.1 39.4999 50.7" fill="white"/>
<path d="M59.1997 18V33.7H44.6997C44.6997 33.7 35.9997 26.2 44.6997 17.5H59.1997V18V18Z" fill="#353532"/>
<path d="M44.8002 22H14.5002C14.5002 22 12.5002 28.1 14.5002 30.1H44.6002L44.8002 22V22Z" fill="#353532"/>
<path d="M54.7998 17.6H59.3998V34.1H54.7998V17.6Z" fill="#00A651"/>
</svg>
